<svg xmlns="http://www.w3.org/2000/svg" xmlns:xlink="http://www.w3.org/1999/xlink" version="1.1" id="Layer_1" x="0px" y="0px" width="100px" height="100px" viewBox="0 0 100 100" enable-background="new 0 0 100 100" xml:space="preserve">
<g>
	<path d="M21.217,14.477c0-1.814,1.607-3.303,3.572-3.303c1.994,0,3.574,1.488,3.574,3.303v5.21v2.529   c0,1.816-1.58,3.306-3.574,3.306c-1.965,0-3.572-1.489-3.572-3.306v-2.529V14.477z"/>
	<path d="M35.357,19.687v-5.21c0-1.814,1.607-3.303,3.605-3.303c1.963,0,3.57,1.488,3.57,3.303v5.21v2.529   c0,1.816-1.607,3.306-3.57,3.306c-1.998,0-3.605-1.489-3.605-3.306V19.687z"/>
	<path d="M63.672,19.687v-5.21c0-1.814,1.607-3.303,3.572-3.303c1.963,0,3.57,1.488,3.57,3.303v5.21v2.529   c0,1.816-1.607,3.306-3.57,3.306c-1.965,0-3.572-1.489-3.572-3.306V19.687z"/>
	<path d="M82.039,23.256v59.483c0,1.965-1.43,3.573-3.186,3.573H15.92c-1.756,0-3.188-1.608-3.188-3.573V23.256   c0-1.962,1.432-3.569,3.188-3.569h2.143v2.559c0,3.843,3.186,6.997,7.084,6.997c3.871,0,6.998-3.067,7.117-6.817   c0.088,3.75,3.213,6.817,7.086,6.817c3.869,0,6.994-3.067,7.084-6.817c0.088,3.75,3.244,6.817,7.086,6.817   c3.869,0,6.994-3.067,7.113-6.817c0.09,3.75,3.188,6.817,7.086,6.817c3.9,0,7.084-3.154,7.084-6.997v-2.559h4.051   C80.609,19.687,82.039,21.294,82.039,23.256z M74.535,75.334V41.318c0-2.197-1.607-4.007-3.602-4.007h-46.23   c-1.998,0-3.635,1.81-3.635,4.007v34.016c0,2.232,1.637,4.041,3.635,4.041h46.23C72.928,79.375,74.535,77.566,74.535,75.334z"/>
	<path d="M56.674,19.687v2.529c0,1.816-1.607,3.306-3.57,3.306c-1.965,0-3.574-1.489-3.574-3.306v-2.529v-5.21   c0-1.814,1.609-3.303,3.574-3.303c1.963,0,3.57,1.488,3.57,3.303V19.687z"/>
</g>
<g>
	<path d="M46.717,51.188c0.101-3.067,2.536-6.063,6.138-7.258c5.543-1.84,13.165,1.534,12.771,9.301   c-0.497,7.152-14.849,18.498-18.709,22.074"/>
	<path d="M46.795,51.188c-0.099-3.067-2.536-6.063-6.136-7.258c-5.545-1.84-13.165,1.534-12.77,9.301   c0.496,7.152,15.462,18.383,19.322,21.958"/>
</g>
</svg>