<svg xmlns="http://www.w3.org/2000/svg" xmlns:xlink="http://www.w3.org/1999/xlink" version="1.1" id="Layer_1" x="0px" y="0px" viewBox="0 0 90 90" enable-background="new 0 0 90 90" xml:space="preserve" height="100px" width="100px">
<path d="M31.1,69h27.9c1.7,0,3.3-0.9,4.4-2.1c1.1-1.2,1.7-2.9,1.6-4.6l-0.6-8.9c0-0.1,0-0.2,0-0.3c-0.6-3.1-3.9-5.7-9.9-7.7  c-0.6-0.2-1.1-0.7-1.3-1.3c-0.1-0.3-0.2-0.9,0.1-1.6c1-1.7,2.1-3.8,2.7-7.1c0.8-4.6-0.1-8.6-2.6-11.3c-2-2.2-5-3.4-8.4-3.4  c-3.5,0-6.4,1.2-8.4,3.4c-2.5,2.7-3.4,6.7-2.6,11.3c0.6,3.3,1.7,5.5,2.7,7.1c0.4,0.7,0.3,1.3,0.1,1.6c-0.2,0.6-0.7,1-1.3,1.3  c-5.9,2.1-9.2,4.7-9.9,7.7c0,0.2-0.1,0.4-0.6,9.2c-0.1,1.7,0.5,3.4,1.6,4.6S29.4,69,31.1,69z M29.6,53.9c0.2-1.2,2.3-3,7.3-4.8  c1.7-0.6,3.1-1.9,3.7-3.7c0.6-1.7,0.4-3.5-0.5-5c-0.8-1.4-1.7-3.1-2.1-5.8c-0.6-3.4,0-6.2,1.6-7.9c1.3-1.4,3.1-2.1,5.5-2.1  s4.2,0.7,5.5,2.1c1.6,1.8,2.2,4.6,1.6,7.9c-0.5,2.7-1.3,4.4-2.1,5.8c-0.9,1.5-1.1,3.3-0.5,5c0.6,1.7,2,3,3.7,3.7  c4.8,1.7,6.9,3.5,7.2,4.7l0.6,8.7c0,0.5-0.2,1.3-0.5,1.7c-0.4,0.4-0.9,0.8-1.5,0.8H31.1c-0.6,0-1.1-0.4-1.5-0.8  c-0.4-0.4-0.6-1-0.5-1.6C29.5,55.1,29.6,53.9,29.6,53.9z"/>
</svg>